<svg width="40" height="35" viewBox="0 0 40 35" fill="none" xmlns="http://www.w3.org/2000/svg">
<path d="M32.502 5V0H7.50204V5H0V10C0 14.1388 3.35918 17.498 7.50204 17.498C8.28571 17.498 9.04082 17.3755 9.75102 17.1551C11.5551 19.7347 14.3061 21.6 17.502 22.249V30H15C12.2367 30 10 32.2367 10 35H30C30 32.2367 27.7633 30 25 30H22.498V22.249C25.6939 21.6 28.4449 19.7347 30.249 17.1551C30.9592 17.3796 31.7143 17.498 32.498 17.498C36.6408 17.498 40 14.1388 40 10V5H32.502ZM7.50204 14.5306C5.00408 14.5306 2.97143 12.498 2.97143 10V7.49796H7.50204V10C7.50204 11.5714 7.79184 13.0735 8.32245 14.4571C8.05306 14.502 7.77959 14.5306 7.50204 14.5306ZM37.0326 10C37.0326 12.498 35 14.5306 32.502 14.5306C32.2245 14.5306 31.951 14.502 31.6816 14.4571C32.2082 13.0735 32.502 11.5714 32.502 10V7.49796H37.0326V10Z" fill="#FF8A00"/>
</svg>
