<svg width="40" height="51" viewBox="0 0 40 51" fill="none" xmlns="http://www.w3.org/2000/svg">
<path d="M39.8767 42.6563L33.0755 27.9578L32.6658 28.2139C32.5275 28.301 32.4097 28.4136 32.3277 28.5417L30.6172 31.169C30.0846 31.9833 29.1729 32.4954 28.1845 32.5415L24.999 32.6747C24.8402 32.6798 24.6763 32.7259 24.5381 32.7925L24.0925 33.0178L20.9121 39.8959L25.296 49.3807C25.7365 50.3333 27.0732 50.4562 27.6877 49.5958L31.0218 44.9251C31.3956 44.4232 31.8822 44.1569 32.2048 44.3464L38.5708 44.5615C39.5899 44.5973 40.2967 43.573 39.8767 42.6563ZM21.7008 34.2469C21.2706 34.4518 20.7841 34.5645 20.3026 34.5645C19.8161 34.5645 19.3296 34.4518 18.8994 34.2316L18.1056 33.827L16.0672 32.7976C15.9238 32.7259 15.7651 32.6849 15.6063 32.6798L12.4157 32.5466C11.4272 32.5005 10.5156 31.9884 9.98299 31.1741L8.27243 28.5468C8.18537 28.4136 8.06758 28.2958 7.93442 28.219L7.05354 27.6762L0.124255 42.6717C-0.29058 43.5679 0.385447 44.5768 1.379 44.5768H1.43022L7.79614 44.3617H7.84736C8.29804 44.3617 8.718 44.5768 8.97919 44.9405L12.3132 49.6112C12.5898 50.0004 13.02 50.1899 13.4451 50.1899C13.9572 50.1899 14.4694 49.9134 14.7049 49.3961L19.9954 37.9446L21.7059 34.2418L21.7008 34.2469ZM5.03058 19.866C5.22007 20.2194 5.3225 20.5983 5.33786 20.9927L5.47614 24.1065C5.49662 24.547 5.73733 24.9464 6.11632 25.1871L6.31605 25.3101L7.02281 25.7454L7.72956 26.1807L8.80506 26.8516C9.1482 27.0616 9.435 27.3484 9.65009 27.6762L11.3658 30.3034C11.6065 30.6773 12.0162 30.9078 12.472 30.9283L15.6575 31.0614C16.0621 31.0768 16.4513 31.1792 16.8098 31.3636L16.9788 31.4506L19.6369 32.7976C19.8366 32.9 20.0568 32.9461 20.2719 32.9461C20.487 32.9461 20.7072 32.9 20.907 32.7976L22.7814 31.8501L23.7442 31.3636C23.8159 31.3277 23.8876 31.2919 23.9645 31.2663C24.2615 31.1485 24.579 31.0768 24.8966 31.0614L24.9683 31.0563L28.0872 30.9231C28.543 30.9026 28.9476 30.6671 29.1934 30.2983L30.9091 27.671C31.1242 27.3381 31.4161 27.0565 31.7541 26.8465L32.3636 26.4675L34.4429 25.1769C34.8219 24.9413 35.0626 24.5418 35.0831 24.0963L35.2213 20.9825C35.2367 20.5881 35.3443 20.204 35.5286 19.8557L36.9985 17.0902C37.2085 16.7009 37.2085 16.24 36.9985 15.8508L35.5389 13.0852C35.3494 12.737 35.247 12.3529 35.2316 11.9585L35.0933 8.84981C35.0728 8.40937 34.8321 8.0099 34.4531 7.76919L31.7593 6.09449C31.4161 5.88451 31.1293 5.59771 30.9142 5.26994L29.2037 2.64265C28.963 2.26879 28.5533 2.03833 28.0974 2.01784L24.917 1.88468C24.5125 1.86932 24.1232 1.76689 23.7647 1.58252L20.9275 0.148521C20.7277 0.0460928 20.5075 0 20.2924 0C20.0773 0 19.8571 0.0460928 19.6573 0.148521L16.8201 1.58252C16.4616 1.76689 16.0672 1.86932 15.6678 1.88468L12.4822 2.01784C12.0264 2.03833 11.6218 2.26879 11.376 2.64265L9.65522 5.26994C9.44012 5.60283 9.1482 5.88451 8.81018 6.09449L6.12144 7.76919C5.74245 8.00478 5.50175 8.40425 5.48126 8.84981L5.34298 11.9636C5.32762 12.358 5.22007 12.7421 5.0357 13.0903L3.56585 15.8559C3.35587 16.2451 3.35587 16.7061 3.56585 17.0953L5.03058 19.866Z" fill="#FF8A00"/>
</svg>
