<svg width="40" height="40" viewBox="0 0 40 40" fill="none" xmlns="http://www.w3.org/2000/svg">
<path d="M0 6.54535V13.0911H6.54531H13.0906V6.54535V4.48227e-05H6.54531H0V6.54535Z" fill="#FF8A00"/>
<path d="M26.8282 6.54535V13.0911H33.3735H39.9188L39.951 6.54576L40 4.48227e-05H33.422H26.8282V6.54535Z" fill="#FF8A00"/>
<path d="M13.3816 16.7596L13.3331 20.1212L10.0686 20.1698L6.78776 20.202V30.0608V39.9196H9.93919H13.0906L13.1229 36.6388L13.1714 33.3739L20.0078 33.3253L26.8282 33.2931V36.6384V40H30.0604H33.2927V30.0931V20.202H29.9796H26.6665V16.8082V13.4143H20.0404H13.4143L13.3816 16.7596Z" fill="#FF8A00"/>
</svg>
