<svg width="50" height="39" viewBox="0 0 50 39" fill="none" xmlns="http://www.w3.org/2000/svg">
<path d="M45.1517 0.618864C44.2119 2.07803 44.0522 3.9872 44.7216 5.74637C44.7716 5.87647 44.6716 5.89637 44.0818 5.89637C43.292 5.89637 40.4237 5.66627 38.3844 5.44637C37.6446 5.36627 36.9452 5.29638 36.835 5.30658C36.7151 5.30658 37.7446 5.59637 39.114 5.93616C42.1125 6.69585 43.1721 7.03564 44.5614 7.71523C45.4211 8.12492 45.741 8.35502 46.3308 8.93461C46.9706 9.58409 47.0604 9.7244 47.2604 10.3841C47.6701 11.7234 47.4201 13.0427 46.5007 14.4621C45.9211 15.3616 43.7818 17.4304 42.2625 18.56C41.5227 19.11 40.2135 20.0192 39.364 20.5891C38.5145 21.1488 37.7747 21.6585 37.7145 21.7085C37.3946 22.0085 40.6033 20.409 42.4721 19.3294C46.1813 17.2106 48.2303 15.3718 49.2598 13.2427C49.8297 12.0535 49.9894 11.4336 49.9996 10.2943C50.0098 8.92491 49.8195 8.63512 47.5109 6.34636C46.0114 4.85709 45.5318 4.32751 45.3216 3.88771C44.8119 2.82803 44.8221 1.77855 45.3415 0.649475C45.5114 0.289785 45.6313 -7.62939e-06 45.6012 -7.62939e-06C45.5813 -0.00102806 45.3813 0.278561 45.1517 0.618864Z" fill="#FF8A00"/>
<path d="M36.5156 23.1978C34.5564 23.4477 32.7074 24.1171 29.0993 25.9166C25.0412 27.9355 23.8616 28.3156 21.6728 28.3156C20.2637 28.3156 19.4438 28.1559 17.9346 27.5957C17.3647 27.386 17.2147 27.3758 14.9862 27.4059L12.6275 27.436L11.9479 27.7559C10.7684 28.3156 9.89897 29.4048 9.37908 30.9844C9.13928 31.7242 8.87908 33.2931 8.87908 34.0329V34.5425L10.9581 35.0624C13.9168 35.8022 15.126 35.992 17.1851 36.0522C19.2142 36.1119 20.2035 36.0119 21.4831 35.5823C23.0621 35.0527 24.2815 34.1829 28.6697 30.4247C33.987 25.8865 36.2161 24.3375 38.7048 23.4875C39.2446 23.3074 39.4344 23.1978 39.3145 23.158C39.0844 23.0676 37.3753 23.0978 36.5156 23.1978Z" fill="#FF8A00"/>
<path d="M14.0464 25.2069C13.6265 25.9768 13.2765 26.6564 13.2765 26.736C13.2765 26.7661 14.1959 26.786 15.3255 26.786C16.455 26.786 17.3744 26.7559 17.3744 26.7263C17.3744 26.6962 17.1244 26.1967 16.8147 25.6268L16.255 24.5876H15.3255H14.3959L14.0464 25.2069Z" fill="#FF8A00"/>
<path d="M2.6021 26.1962C1.58272 26.3661 0.973029 26.836 0.542931 27.7855C-0.0968594 29.1952 -0.176961 30.5043 0.333239 31.5436C0.69293 32.2834 1.37252 32.7232 3.00209 33.263C4.00157 33.6028 7.6597 34.4426 7.73981 34.3523C7.75001 34.3421 7.66991 33.9824 7.55001 33.5528C7.39032 32.9431 7.30001 32.7732 7.14032 32.7329C7.02042 32.7028 6.20053 32.5431 5.31126 32.3829C3.54188 32.0533 2.26281 31.6834 1.89292 31.3931C1.59292 31.1635 1.47302 30.4834 1.59292 29.5839C1.65313 29.0441 1.72302 28.8941 1.97251 28.6646C2.4123 28.2748 3.27199 28.0447 4.07147 28.1151C4.44137 28.1452 5.31075 28.3549 6.01074 28.5748C7.46022 29.0344 8.0597 29.0844 8.5597 28.7845C9.02959 28.4947 9.04949 28.3447 8.6597 27.9947C7.78011 27.2049 5.86125 26.3952 4.35157 26.1957C3.47148 26.0763 3.35158 26.0763 2.6021 26.1962Z" fill="#FF8A00"/>
<path d="M11.2979 37.8007L11.328 38.8303H15.826H20.3239L20.354 38.2308L20.3841 37.6211L18.555 37.6609C16.4862 37.7109 15.0867 37.5609 12.8775 37.0813C12.1377 36.9114 11.4683 36.7813 11.3984 36.7813C11.2979 36.7813 11.278 37.0211 11.2979 37.8007Z" fill="#FF8A00"/>
</svg>
