<svg width="40" height="32" viewBox="0 0 40 32" fill="none" xmlns="http://www.w3.org/2000/svg">
<path d="M6.00979 0.159787C5.43306 0.361827 4.91347 0.842644 4.65388 1.3904C4.43265 1.85203 4.42326 1.98673 4.42326 3.87122V5.87122H10.1927H15.962V3.87122C15.962 1.90958 15.9522 1.86142 15.7118 1.37122C15.4233 0.784685 14.9424 0.361419 14.3367 0.14999C13.7212 -0.0516424 6.59632 -0.0516419 6.00979 0.159787Z" fill="#FF8A00"/>
<path d="M25.7694 0.0924592C25.1057 0.303888 24.5192 0.7945 24.1735 1.44838C24.0102 1.73695 23.9906 2.05409 23.962 3.82348L23.9331 5.87164H29.76H35.5869L35.558 3.82348C35.529 2.05409 35.5098 1.73695 35.3465 1.44838C35.0967 0.977357 34.6351 0.505929 34.1833 0.26552C33.8082 0.0634794 33.6931 0.0540915 29.9045 0.0349078C27.7596 0.0251122 25.9037 0.0540919 25.7694 0.0924592Z" fill="#FF8A00"/>
<path d="M0 19.6215V31.2562H20H40V19.6215V7.98678H20H0V19.6215Z" fill="#FF8A00"/>
</svg>
