<svg width="50" height="36" viewBox="0 0 50 36" fill="none" xmlns="http://www.w3.org/2000/svg">
<path d="M46.4842 0.0954227C46.3612 0.139811 45.5133 0.943892 44.5867 1.86991L42.9128 3.55512H32.8571C26.4842 3.55512 22.5781 3.5995 22.1985 3.66685C20.8036 3.93471 19.4418 4.8944 18.5153 6.25614L18.0801 6.90359L17.5556 6.50155C16.2719 5.5194 15.502 5.34083 12.6112 5.34083C10.1556 5.34083 9.74286 5.44134 9.25204 6.13318C8.8949 6.64644 8.87245 7.62859 9.21837 8.09746C9.73163 8.7893 10.0668 8.91226 11.4949 8.91226C13.102 8.91226 13.6265 9.1245 14.0393 9.91685C14.4745 10.776 14.3964 10.9883 13.4367 11.7582L12.5883 12.4281L13.0235 12.4949C13.2577 12.5398 13.8939 12.6286 14.4296 12.6959C17.1194 13.0531 19.5413 14.649 20.6796 16.8143C21.2051 17.8072 21.4286 18.8005 21.4286 20.2179C21.4286 21.7021 21.674 22.8184 22.2878 24.0908C22.723 24.9949 22.9464 25.2964 23.8168 26.1669C24.6872 27.0373 24.9888 27.2607 25.8929 27.6959C27.277 28.3658 28.4597 28.6112 29.9107 28.522C31.9755 28.399 33.5714 27.6847 35.0556 26.2118C36.1158 25.1628 36.6852 24.2699 37.1541 22.8857L37.4444 22.0265L37.4781 16.3566L37.5117 10.698H43.7617H50V7.12655V3.55512H49.1071H48.2143V2.27144C48.2143 0.820423 48.0913 0.430117 47.5444 0.151035C47.1872 -0.0275364 46.8301 -0.049984 46.4842 0.0954227ZM33.9286 8.0194V8.91226H28.5714H23.2143V8.0194V7.12655H28.5714H33.9286V8.0194ZM33.9286 13.3765V14.2694H28.5714H23.2143V13.3765V12.4837H28.5714H33.9286V13.3765ZM26.8862 20.2403C27.0872 21.122 27.6898 22.2714 28.326 22.9413C28.8842 23.5551 29.1071 23.6444 29.3862 23.3653C29.5204 23.2424 29.5311 23.1087 29.4531 22.7847C29.3189 22.2041 29.3301 20.5526 29.4755 20.0393L29.5872 19.6265H32.199H34.8214V20.2852C34.8214 23.4102 32.4551 25.8765 29.4643 25.8765C26.8526 25.8765 24.4194 23.7449 24.252 21.323C24.1964 20.6643 24.2296 20.5306 24.4531 20.2515C24.799 19.8163 25.2679 19.6378 26.0714 19.6265H26.752L26.8862 20.2403Z" fill="#FF8A00"/>
<path d="M8.87296 15.5194C3.00204 20.698 0 25.6868 0 30.2852C0 32.897 1.71888 35.051 4.24082 35.5868C4.67602 35.676 6.38367 35.6985 10.0444 35.676C15.1 35.6424 15.2454 35.6317 15.7587 35.397C16.4286 35.0954 17.176 34.348 17.5219 33.6337L17.801 33.0755L17.8566 27.6628L17.9122 22.25L18.2026 21.6919C18.4929 21.1674 19.3633 20.1852 19.5531 20.1852C19.698 20.1852 19.6536 19.2699 19.4638 18.5669C19.0954 17.1383 18.0128 15.8995 16.4949 15.174C15.1219 14.5266 14.3857 14.3817 12.2204 14.3036L10.323 14.248L8.87296 15.5194Z" fill="#FF8A00"/>
</svg>
