<svg width="40" height="40" viewBox="0 0 40 40" fill="none" xmlns="http://www.w3.org/2000/svg">
<path d="M24.3414 0.841236C24.3728 1.31348 24.4042 3.03754 24.4124 4.68283L24.4283 7.67423L21.3031 9.87869C19.5867 11.0909 18.1855 12.0987 18.1855 12.1223C18.1778 12.146 19.4374 12.5476 20.9724 13.0276L23.7671 13.8938L12.0052 25.663C1.17266 36.5033 0.235931 37.4637 0.117973 37.818C-0.118351 38.5502 -0.0395761 38.7625 0.724089 39.5029C1.21225 39.9674 1.25959 39.991 1.62163 39.991C1.82612 39.991 2.15714 39.9123 2.35387 39.8257C2.62938 39.7078 5.23506 37.1413 14.3986 27.9777L26.0891 16.295L26.9079 18.948C27.3646 20.4121 27.7503 21.6484 27.774 21.7035C27.8054 21.7586 28.8132 20.3965 30.0332 18.6725L32.2454 15.5472L36.1266 15.5786L40 15.6101L39.3388 14.7125C38.9767 14.2166 37.9376 12.8232 37.0323 11.6109L35.387 9.41462L36.6151 5.76976C37.3 3.76244 37.8274 2.1249 37.7959 2.1249C37.7645 2.1249 36.1192 2.67591 34.1429 3.34529L30.5454 4.56569L27.483 2.28286C25.7904 1.03104 24.3891 2.28882e-05 24.3577 2.28882e-05C24.3263 2.28882e-05 24.3177 0.376751 24.3414 0.841236Z" fill="#FF8A00"/>
<path d="M16.2958 0.991041C16.288 1.41634 16.0203 2.42368 15.8158 2.83306C15.5954 3.26612 15.1701 3.7306 14.7688 3.95877C14.4774 4.13182 13.7688 4.3759 13.0999 4.5257C12.8872 4.5808 12.9031 4.59672 13.344 4.68325C14.0999 4.84855 14.6978 5.17141 15.2492 5.71467C15.7766 6.24201 16.0758 6.78527 16.2174 7.47791C16.359 8.17056 16.3749 8.17872 16.5325 7.5722C16.7137 6.83996 17.17 5.97425 17.5325 5.6514C17.69 5.51752 18.0284 5.30487 18.2961 5.18692C18.7843 4.95875 19.8627 4.65141 20.2169 4.6359C20.3271 4.6359 20.1067 4.56488 19.7133 4.48651C18.9419 4.32896 18.3749 4.15591 17.9341 3.9355C17.6272 3.77795 17.1468 3.28204 16.9737 2.93551C16.8162 2.62041 16.5484 1.77838 16.4145 1.18002C16.3113 0.70737 16.3035 0.691861 16.2958 0.991041Z" fill="#FF8A00"/>
<path d="M35.3233 22.2777C35.1425 23.2541 34.9139 23.7896 34.4731 24.2696C34.0245 24.7577 33.316 25.1198 32.4735 25.2928L31.9225 25.3953L32.4184 25.5055C33.9772 25.8361 35.1029 27.0014 35.3625 28.5597L35.4568 29.1189L35.5907 28.5283C35.7637 27.7805 36.1339 27.001 36.5119 26.6075C36.8898 26.214 37.8188 25.7732 38.6376 25.5998C39.2437 25.4736 39.48 25.3479 39.102 25.3479C38.7792 25.3479 37.6221 25.0332 37.2049 24.8361C36.3233 24.4267 35.8588 23.6553 35.5437 22.112L35.4413 21.6161L35.3233 22.2777Z" fill="#FF8A00"/>
<path d="M28.4116 30.709C28.4116 31.0711 28.1911 31.8662 27.9626 32.3151C27.7344 32.7796 27.3169 33.2364 26.8761 33.4882C26.514 33.7008 25.5773 34.0078 25.2859 34.0078C24.9789 34.0078 25.1442 34.1416 25.5299 34.1967C25.7189 34.2282 26.1283 34.3698 26.443 34.5196C27.4822 35.0237 28.1985 35.9918 28.4189 37.1886L28.5213 37.7241L28.7026 37.0469C29.1593 35.3069 29.8993 34.6539 31.8593 34.2523L32.5205 34.1106L31.8278 33.9768C30.5838 33.7327 29.7654 33.3629 29.3875 32.8666C29.112 32.5045 28.8364 31.8274 28.6711 31.0719C28.5295 30.4417 28.4116 30.2841 28.4116 30.709Z" fill="#FF8A00"/>
</svg>
