<svg width="30" height="45" viewBox="0 0 30 45" fill="none" xmlns="http://www.w3.org/2000/svg">
<path d="M20.4199 45H15.5757C15.3278 45 15.1257 44.798 15.1257 44.55V43.5628C15.1257 43.1496 15.2589 42.7639 15.4885 42.4517L15.2864 40.8492H14.4921L14.2763 42.571C14.2763 42.5894 14.2717 42.6078 14.2671 42.6261C14.4232 42.9016 14.515 43.223 14.515 43.5628V44.55C14.515 44.798 14.313 45 14.0651 45H9.22551C8.97757 45 8.77554 44.798 8.77554 44.55V43.5628C8.77554 43.1266 8.92247 42.7272 9.17041 42.4057C9.14746 42.1991 9.0694 41.694 8.7939 40.8997C8.523 40.1237 7.7562 39.4625 7.38887 39.2008C6.04812 39.1136 4.84971 38.4891 4.00944 37.5386L4.05536 38.0116C4.33545 38.1769 4.85889 38.4799 5.20326 38.6131C5.99761 38.9207 6.443 39.5957 6.46136 40.5094C6.47514 41.2854 5.85068 41.7308 5.32264 41.9328C5.21244 42.4654 4.83134 43.1634 3.8671 43.3287C2.86613 43.4985 2.31055 42.8557 2.06719 42.3047H1.69986C1.06163 42.3047 0.253503 42.0292 0.0331056 40.7114C-0.118418 39.8069 0.290236 38.6911 0.450943 38.3008L0.152488 36.7672C0.124938 36.6341 0.161671 36.5009 0.248911 36.3953C0.33156 36.2989 0.450942 36.2392 0.574916 36.23C0.450942 35.1418 0.239728 32.497 0.639198 29.866C1.02949 27.3085 1.80547 25.7703 2.18657 25.1275L1.72282 24.6913C1.61262 24.5903 1.56211 24.4388 1.58507 24.2918L1.93403 22.1659C1.96158 22.0006 2.07637 21.8675 2.23249 21.8124C2.3886 21.7573 2.56308 21.794 2.68706 21.9088L2.74675 21.9639V10.9578C2.74675 8.83187 3.42631 6.86207 4.5788 5.25042C4.48238 5.15399 4.43187 5.01624 4.45024 4.86931C4.4686 4.74993 4.92317 1.88017 8.70207 0.511872C12.5039 -0.865611 14.3222 0.975625 14.3957 1.05368C14.4186 1.07664 14.4416 1.10419 14.4554 1.13633H15.5436C15.5619 1.10878 15.5803 1.08123 15.6033 1.05368C15.6767 0.975625 17.4996 -0.870203 21.2969 0.511872C25.0803 1.88476 25.5349 4.74993 25.5533 4.86931C25.5854 5.08053 25.4615 5.28256 25.2686 5.35602C26.3752 6.94472 27.0272 8.87779 27.0272 10.9578V21.8996C27.1466 21.7986 27.3119 21.7664 27.4634 21.817C27.6195 21.8721 27.7343 22.0052 27.7619 22.1705L28.1108 24.2964C28.1338 24.4434 28.0833 24.5949 27.9731 24.6959L27.569 25.077C27.9272 25.7244 28.6664 27.2993 29.0613 29.8706C29.4653 32.5016 29.2495 35.1418 29.1256 36.2346C29.2541 36.2392 29.3735 36.2989 29.4516 36.3999C29.5388 36.5055 29.5709 36.6387 29.548 36.7718L29.2495 38.3054C29.4102 38.6911 29.8189 39.8115 29.6674 40.716C29.447 42.0338 28.6388 42.3093 28.0006 42.3093H27.6333C27.3945 42.8603 26.8343 43.5031 25.8334 43.3332C24.8691 43.1725 24.4834 42.4746 24.3778 41.9374C23.8498 41.7354 23.2253 41.29 23.2391 40.514C23.2575 39.6003 23.7029 38.9253 24.4972 38.6177C24.8186 38.4937 25.3329 38.2044 25.6451 38.0162L25.6819 37.6351C24.8462 38.5304 23.6845 39.1181 22.3897 39.2054C22.1142 39.4028 21.2785 40.0594 20.98 40.9043C20.6081 41.9741 20.5943 42.5159 20.5943 42.5251C20.5943 42.5481 20.5898 42.571 20.5898 42.594C20.7596 42.8787 20.8607 43.2139 20.8607 43.5674V44.5546C20.8698 44.798 20.6678 45 20.4199 45ZM16.0257 44.1H19.9653V43.5628C19.9653 43.3195 19.8781 43.0945 19.7311 42.9246C19.6898 42.9062 19.6531 42.8787 19.6163 42.8511C19.4189 42.6721 19.1664 42.5756 18.9046 42.5756H17.0818C16.82 42.5756 16.5675 42.6721 16.3701 42.8511C16.3379 42.8833 16.2966 42.9062 16.2553 42.9246C16.1083 43.0991 16.0211 43.3195 16.0211 43.5628V44.1H16.0257ZM9.67549 44.1H13.6151V43.5628C13.6151 43.3195 13.5279 43.0945 13.3809 42.9246C13.3396 42.9062 13.3029 42.8787 13.2661 42.8511C13.0687 42.6721 12.8162 42.5756 12.5544 42.5756H10.7316C10.4698 42.5756 10.2173 42.6721 10.0199 42.8511C9.98772 42.8833 9.9464 42.9062 9.90507 42.9246C9.75814 43.0991 9.6709 43.3195 9.6709 43.5628V44.1H9.67549ZM25.2732 41.7813C25.3237 42.0063 25.4844 42.3552 25.9941 42.4425C26.6828 42.5573 26.8619 41.841 26.8803 41.7629C26.9262 41.5563 27.1098 41.4094 27.3211 41.4094H28.0098C28.3174 41.4094 28.6572 41.3451 28.7858 40.5691C28.9006 39.8941 28.5287 38.8794 28.3771 38.5488C28.3404 38.4615 28.3266 38.3697 28.345 38.2779L28.5654 37.1438H26.6507L26.5313 38.3376C26.5175 38.4753 26.4395 38.6039 26.3201 38.6774C26.2834 38.7003 25.3972 39.2467 24.837 39.4625C24.3916 39.637 24.162 39.9951 24.1528 40.537C24.1483 40.8262 24.4788 41.0099 24.7038 41.0971L25.2916 40.5966C25.4798 40.4359 25.7645 40.4589 25.9252 40.6472C26.0859 40.8354 26.063 41.1201 25.8747 41.2808L25.2732 41.7813ZM1.14428 37.1346L1.36467 38.2687C1.38304 38.3605 1.36926 38.457 1.33253 38.5396C1.18101 38.8748 0.81368 39.8849 0.923879 40.5599C1.05244 41.3359 1.39222 41.4002 1.69986 41.4002H2.3886C2.59982 41.4002 2.78348 41.5471 2.8294 41.7537C2.86154 41.8869 3.04979 42.5481 3.71558 42.4333C4.22525 42.3461 4.38595 41.9925 4.43646 41.7721L3.83955 41.2624C3.6513 41.1017 3.62834 40.817 3.78904 40.6288C3.94975 40.4405 4.23443 40.4176 4.42269 40.5783L5.01041 41.0788C5.2354 40.9915 5.566 40.8079 5.56141 40.5186C5.55222 39.9768 5.32264 39.6186 4.87726 39.4442C4.31708 39.2238 3.4309 38.6819 3.39417 38.659C3.27478 38.5855 3.19673 38.4615 3.18295 38.3192L3.06357 37.1254H1.14428V37.1346ZM10.6719 41.6665H12.6233C12.9218 41.6665 13.2064 41.7354 13.4636 41.8639L13.6518 40.3441C13.6794 40.1191 13.8722 39.9492 14.0972 39.9492H15.6859C15.9155 39.9492 16.1037 40.1191 16.1313 40.3441L16.315 41.8088C16.5354 41.7216 16.7741 41.6711 17.0221 41.6711H18.9735C19.2674 41.6711 19.5429 41.7354 19.7908 41.8547C19.8505 41.5471 19.9607 41.1293 20.1444 40.6058C20.3372 40.0548 20.6862 39.5819 21.0305 39.2146H8.75717C9.10154 39.5819 9.4505 40.0548 9.64335 40.6058C9.81783 41.1017 9.91885 41.4966 9.98313 41.7996C10.1943 41.7124 10.4285 41.6665 10.6719 41.6665ZM4.76706 37.0381C5.50631 37.8233 6.55779 38.31 7.71487 38.31H22.0683C23.2162 38.31 24.2539 37.8325 24.9931 37.0611C24.5156 36.8177 23.8682 36.3081 23.4228 35.2474C23.2621 34.8709 23.1656 34.3291 23.106 33.7092C23.106 33.7 23.106 33.6954 23.106 33.6863C22.9728 32.2307 23.0692 30.3528 23.1565 29.1635L22.33 29.8752C22.3024 29.8982 22.2749 29.9166 22.2427 29.9349C22.2152 29.9487 22.183 29.9579 22.1509 29.9671C22.1463 29.9671 22.1417 29.9671 22.1371 29.9717H22.1325C22.1325 29.9717 22.1325 29.9717 22.1279 29.9717C22.1234 29.9717 22.1234 29.9717 22.1188 29.9717H22.1142H22.1096C22.1096 29.9717 22.105 29.9717 22.1004 29.9717H22.0958C22.0958 29.9717 22.0958 29.9717 22.0912 29.9717C21.9581 29.9487 21.8387 29.8615 21.7744 29.7421L20.8147 27.9468C20.7688 27.8595 20.7596 27.7631 20.7734 27.6713C20.7826 27.6299 20.7964 27.5886 20.8147 27.5519C20.8377 27.506 20.8744 27.46 20.9158 27.4233L22.1096 26.381C21.0443 26.5463 19.7036 26.7254 18.6751 26.7529C16.719 26.8126 15.1717 26.8126 15.1579 26.8126C15.0982 26.8126 15.0477 26.8034 14.9972 26.7805C14.9467 26.7989 14.8916 26.8126 14.8365 26.8126C14.8227 26.8126 13.2707 26.8126 11.3193 26.7529C10.2908 26.7208 8.95461 26.5463 7.88476 26.381L9.07858 27.4233C9.08317 27.4279 9.08317 27.4279 9.08776 27.4325C9.12909 27.4738 9.16582 27.5197 9.18878 27.5702C9.20256 27.6024 9.21633 27.6391 9.22551 27.6758C9.23929 27.7677 9.23011 27.8595 9.18878 27.9468L8.22913 29.7421C8.1924 29.788 8.15108 29.8293 8.10057 29.8569C8.09138 29.8615 8.0822 29.866 8.07302 29.8706C8.06384 29.8752 8.05006 29.8752 8.04088 29.8798C8.01792 29.8844 7.99037 29.889 7.96741 29.889H7.96282C7.96282 29.889 7.95823 29.889 7.95364 29.889C7.95364 29.889 7.95364 29.889 7.94905 29.889C7.94905 29.889 7.94905 29.889 7.94445 29.889C7.89395 29.8798 7.84344 29.8615 7.79752 29.8339C7.77916 29.8247 7.76538 29.8109 7.74701 29.7972L6.92052 29.0855C7.00777 30.2793 7.10419 32.1573 6.97103 33.6128C6.97103 33.6174 6.97103 33.6174 6.97103 33.622C6.91134 34.2419 6.81492 34.7883 6.65421 35.1648C5.85527 36.2713 5.23999 36.7856 4.76706 37.0381ZM24.0426 34.0077C24.0886 34.375 24.1574 34.6781 24.2539 34.8985C24.6533 35.8443 25.2181 36.1933 25.5257 36.3173C25.5441 36.3035 25.5625 36.2943 25.5808 36.2805C25.9298 35.6836 26.1272 34.9857 26.1272 34.2464V33.5072L24.0426 34.0077ZM3.65589 33.5302V34.2556C3.65589 35.0041 3.85792 35.7066 4.21606 36.3127C4.52829 36.1795 5.0701 35.8214 5.4558 34.903C5.54763 34.6826 5.61651 34.375 5.66701 34.0123L3.65589 33.5302ZM26.6139 36.23H28.221C28.3312 35.2566 28.57 32.5889 28.1751 30.0038C27.8812 28.0799 27.3807 26.7438 27.0272 25.9907V34.251C27.0272 34.9536 26.8803 35.6239 26.6139 36.23ZM1.48406 36.23H3.16458C2.89827 35.6239 2.75134 34.9536 2.75134 34.251V32.9654C2.75134 32.9608 2.75134 32.9516 2.75134 32.947V25.977C2.37942 26.6932 1.83302 28.0248 1.52997 30.0038C1.13968 32.5935 1.37386 35.2612 1.48406 36.23ZM3.65589 32.6026L5.74507 33.0985C5.82313 31.4869 5.68079 29.3885 5.57977 28.3187L3.65589 26.5096V32.6026ZM24.1299 28.3187C24.0289 29.3885 23.8865 31.4869 23.9646 33.0985L26.1272 32.5843V26.4407L24.1299 28.3187ZM3.51355 25.1413L7.54957 28.8192L8.06384 27.8595L5.72671 25.9586C5.71752 25.9494 5.70834 25.9448 5.69916 25.9356L2.90286 23.3414C2.89827 23.3368 2.89827 23.3368 2.89368 23.3322L2.69624 23.1485L2.52176 24.2092L3.51355 25.1413ZM21.6458 27.8549L22.1601 28.8146L26.2696 25.0678L27.1879 24.2046L27.0134 23.1439L26.8894 23.2587L26.8849 23.2633L24.0151 25.931C24.0105 25.9356 24.0059 25.9402 23.9967 25.9448C23.9921 25.9494 23.9921 25.9494 23.9875 25.954L21.6458 27.8549ZM6.443 25.2285C7.31999 25.3846 9.66631 25.7887 11.1999 25.8346C13.1422 25.8943 14.6758 25.8943 14.6941 25.8943C14.7538 25.8943 14.8043 25.9035 14.8548 25.9264C14.9053 25.9081 14.9604 25.8943 15.0155 25.8943C15.0293 25.8943 16.5675 25.8943 18.5098 25.8346C20.0434 25.7887 22.3897 25.3892 23.2667 25.2285L26.1272 22.7307V10.9578C26.1272 7.73448 24.41 4.90605 21.8387 3.33571C21.88 3.50101 21.8203 3.68927 21.678 3.79947C21.4805 3.95099 21.1958 3.91426 21.0443 3.71682C21.0397 3.70763 20.351 2.83982 19.1296 2.24291C18.5098 2.10516 17.8623 2.0317 17.2011 2.0317H12.5774C12.0585 2.0317 11.5443 2.07761 11.0484 2.16485C9.71222 2.77095 8.97757 3.71223 8.96838 3.72141C8.81686 3.91885 8.53218 3.95558 8.33474 3.80406C8.1373 3.65254 8.10057 3.36786 8.25209 3.17042C8.25668 3.16582 8.26128 3.15664 8.27046 3.14746C5.52008 4.66728 3.6513 7.60132 3.6513 10.9624V22.7996L6.443 25.2285ZM19.4281 1.38887C21.3933 1.84344 23.1335 2.89492 24.4513 4.33209C24.1023 3.51938 23.2116 2.16026 20.9938 1.35673C19.7633 0.911343 18.7898 0.84706 18.0506 0.938892C18.3996 1.00777 18.7669 1.10878 19.1434 1.2649C19.2398 1.30622 19.3362 1.34755 19.4281 1.38887ZM11.3744 0.902159C10.7316 0.902159 9.95099 1.02154 9.01889 1.35673C7.20061 2.01792 6.27311 3.05103 5.80476 3.84538C7.1547 2.55973 8.87196 1.65059 10.7821 1.29704C10.8096 1.28326 10.8418 1.27408 10.8693 1.26031C11.2458 1.10419 11.6177 1.00317 11.9667 0.934301C11.7876 0.915934 11.5902 0.902159 11.3744 0.902159ZM15.1716 35.0546H13.987C12.2284 35.0546 10.7958 33.622 10.7958 31.8634V29.2691C10.7958 29.0212 10.9979 28.8192 11.2458 28.8192H17.9128C18.1608 28.8192 18.3628 29.0212 18.3628 29.2691V31.8634C18.3628 33.622 16.9302 35.0546 15.1716 35.0546ZM11.6958 29.7237V31.8634C11.6958 33.1261 12.7243 34.1546 13.987 34.1546H15.1716C16.4343 34.1546 17.4629 33.1261 17.4629 31.8634V29.7237H11.6958ZM14.988 23.0383C11.9575 23.0383 10.0841 22.3542 10.0015 22.322C9.76732 22.2348 9.64794 21.9777 9.73518 21.7435C9.82242 21.5093 10.0796 21.3899 10.3137 21.4772C10.3321 21.4818 12.132 22.1338 14.9834 22.1338C17.7843 22.1338 18.9965 21.5093 19.0056 21.5001C19.226 21.3853 19.497 21.468 19.6163 21.6838C19.7357 21.9042 19.6531 22.1751 19.4373 22.2899C19.3867 22.3266 18.0506 23.0383 14.988 23.0383ZM19.8138 18.5339C17.9037 18.5339 16.1129 17.6202 14.988 16.105C13.8584 17.6156 12.0677 18.5339 10.1622 18.5339C6.84247 18.5339 4.14719 15.8341 4.14719 12.5189C4.14719 9.1992 6.84706 6.50393 10.1622 6.50393C12.0723 6.50393 13.863 7.41766 14.988 8.93289C16.1175 7.42225 17.9083 6.50393 19.8138 6.50393C23.1335 6.50393 25.8288 9.20379 25.8288 12.5189C25.8288 15.8341 23.1335 18.5339 19.8138 18.5339ZM14.988 14.8377C15.1487 14.8377 15.3002 14.9249 15.3783 15.0627C16.292 16.6468 17.9909 17.634 19.8138 17.634C22.633 17.634 24.9288 15.3382 24.9288 12.5189C24.9288 9.69969 22.633 7.40388 19.8138 7.40388C17.9909 7.40388 16.2874 8.38649 15.3783 9.97518C15.3002 10.1129 15.1487 10.2002 14.988 10.2002C14.8273 10.2002 14.6758 10.1129 14.5977 9.97518C13.684 8.39108 11.9851 7.40388 10.1622 7.40388C7.34295 7.40388 5.04715 9.69969 5.04715 12.5189C5.04715 15.3382 7.34295 17.634 10.1622 17.634C11.9851 17.634 13.6886 16.6514 14.5977 15.0627C14.6758 14.9249 14.8273 14.8377 14.988 14.8377ZM19.6944 17.0555C17.192 17.0555 15.1579 15.0214 15.1579 12.5189C15.1579 10.0165 17.192 7.98243 19.6944 7.98243C22.1968 7.98243 24.2309 10.0165 24.2309 12.5189C24.2355 15.0214 22.1968 17.0555 19.6944 17.0555ZM19.6944 8.88238C17.6879 8.88238 16.0578 10.5124 16.0578 12.5189C16.0578 14.5255 17.6879 16.1555 19.6944 16.1555C21.7009 16.1555 23.3309 14.5255 23.3309 12.5189C23.3309 10.5124 21.7009 8.88238 19.6944 8.88238ZM10.1576 17.0555C7.65518 17.0555 5.6211 15.0214 5.6211 12.5189C5.6211 10.0165 7.65518 7.98243 10.1576 7.98243C12.66 7.98243 14.6941 10.0165 14.6941 12.5189C14.6987 15.0214 12.66 17.0555 10.1576 17.0555ZM10.1576 8.88238C8.15108 8.88238 6.52105 10.5124 6.52105 12.5189C6.52105 14.5255 8.15108 16.1555 10.1576 16.1555C12.1641 16.1555 13.7942 14.5255 13.7942 12.5189C13.7988 10.5124 12.1641 8.88238 10.1576 8.88238ZM18.7026 14.5576C17.5777 14.5576 16.6639 13.6439 16.6639 12.5189C16.6639 11.394 17.5777 10.4803 18.7026 10.4803C19.8275 10.4803 20.7413 11.394 20.7413 12.5189C20.7413 13.6439 19.823 14.5576 18.7026 14.5576ZM18.7026 11.3802C18.0735 11.3802 17.5639 11.8899 17.5639 12.5189C17.5639 13.148 18.0735 13.6577 18.7026 13.6577C19.3316 13.6577 19.8413 13.148 19.8413 12.5189C19.8367 11.8899 19.3271 11.3802 18.7026 11.3802ZM11.0851 14.5576C9.96017 14.5576 9.04644 13.6439 9.04644 12.5189C9.04644 11.394 9.96017 10.4803 11.0851 10.4803C12.2101 10.4803 13.1238 11.394 13.1238 12.5189C13.1238 13.6439 12.2055 14.5576 11.0851 14.5576ZM11.0851 11.3802C10.4561 11.3802 9.9464 11.8899 9.9464 12.5189C9.9464 13.148 10.4561 13.6577 11.0851 13.6577C11.7142 13.6577 12.2238 13.148 12.2238 12.5189C12.2192 11.8899 11.7096 11.3802 11.0851 11.3802Z" fill="#FF8A00"/>
</svg>
