<svg width="50" height="36" viewBox="0 0 50 36" fill="none" xmlns="http://www.w3.org/2000/svg">
<path d="M23.0204 24.0612L22.1939 21.6939C21.3878 20.3061 19.9796 19.5255 16.3827 17.8622C18.0969 17.0714 19.3061 16.4745 20.1837 15.9337L14.6224 0L6.22959 24.0408C2.59184 24.9847 0 26.6224 0 28.9541C0 37.2551 29.1684 37.2551 29.1684 28.9541C29.1684 26.6378 26.6173 25.0051 23.0204 24.0612ZM22.8827 30.7704C18.2398 32.3469 10.9184 32.3724 6.28571 30.7704C3.93878 29.9592 3.5051 28.6327 4.97959 27.699C8.70408 31.0306 20.5051 31.0357 24.2449 27.7092C25.7755 28.6531 25.2755 29.9592 22.8827 30.7704ZM24.3724 13.4235C23.7245 15.5459 22.0612 17.2092 19.9388 17.8571C22.0612 18.5051 23.7245 20.1684 24.3724 22.2908C25.0204 20.1684 26.6837 18.5051 28.8061 17.8571C26.6837 17.2092 25.0204 15.551 24.3724 13.4235ZM25.5663 3.59694L21.9796 7.18367L46.4133 31.6173L50 28.0306L25.5663 3.59694ZM28.3673 11.4286L24.1224 7.18367L25.5663 5.73979L29.8112 9.98469L28.3673 11.4286ZM30.2755 4.38775C31.8776 4.87755 33.1276 6.12755 33.6173 7.72959C34.1071 6.12755 35.3571 4.87755 36.9592 4.38775C35.3571 3.89796 34.1071 2.64796 33.6173 1.04592C33.1327 2.64796 31.8776 3.90306 30.2755 4.38775ZM35.7398 9.31122C36.8725 9.65816 37.7602 10.5408 38.102 11.6735C38.449 10.5408 39.3316 9.65306 40.4643 9.31122C39.3316 8.96428 38.4439 8.08163 38.102 6.94898C37.7602 8.08163 36.8725 8.96428 35.7398 9.31122ZM41.4949 1.01531C41.102 2.30612 40.0867 3.31633 38.7959 3.71429C40.0867 4.10714 41.0969 5.11735 41.4949 6.41326C41.8878 5.12245 42.898 4.11225 44.1939 3.71429C42.898 3.31633 41.8878 2.30612 41.4949 1.01531Z" fill="#FF8A00"/>
</svg>
