<svg width="40" height="40" viewBox="0 0 40 40" fill="none" xmlns="http://www.w3.org/2000/svg">
<path d="M23.655 0.0533257C23.1827 0.259449 23.0113 0.594147 22.7366 1.84723C22.5819 2.51662 22.4362 3.06602 22.4104 3.06602C22.3847 3.05745 22.0243 2.49949 21.5949 1.81294C20.668 0.319454 20.419 0.0618973 19.8696 0.0618973C19.1488 0.0618973 18.6337 0.534149 18.6337 1.20355C18.6337 1.62437 18.6337 1.61539 20.2904 4.24237L21.6982 6.45709L20.5737 11.4959C19.9557 14.2772 19.432 16.5434 19.4063 16.5434C19.3806 16.5434 18.1704 14.6719 16.7198 12.3886L14.0675 8.22528L14.6854 5.46973C15.132 3.50398 15.2863 2.62846 15.252 2.42234C15.1663 2.00193 14.8226 1.62396 14.4107 1.51253C13.9642 1.4011 13.3977 1.58968 13.1487 1.94152C13.0458 2.08764 12.8483 2.74847 12.6679 3.5897C12.496 4.36237 12.3332 5.07462 12.2903 5.16074C12.2389 5.28932 12.0756 5.0836 11.4319 4.07052C10.7454 2.98888 10.5907 2.79132 10.2731 2.64561C9.8266 2.42234 9.59517 2.42234 9.14006 2.62846C8.67679 2.84316 8.41923 3.255 8.41923 3.81297C8.41923 4.20767 8.47924 4.34522 9.18333 5.43544C9.60415 6.0877 9.94742 6.63709 9.93885 6.64566C9.93028 6.65423 9.21761 6.49954 8.3678 6.31096L6.81431 5.96769L6.41962 6.13953C5.57838 6.50852 5.46654 7.68445 6.23063 8.18242C6.34206 8.25099 7.62126 8.58569 9.0719 8.91222C10.5225 9.23835 11.7503 9.53876 11.8017 9.59019C11.9221 9.71019 17.1667 17.9511 17.141 17.9768C17.1238 17.994 8.70291 16.1482 7.68126 15.8997C7.55269 15.874 7.02901 15.1099 5.96451 13.4445C4.52245 11.1612 4.41102 11.0151 4.05877 10.8608C3.56937 10.6461 3.18324 10.7151 2.77956 11.0841C2.51344 11.3245 2.46201 11.4274 2.43629 11.831C2.39344 12.2861 2.40201 12.3119 3.10569 13.4107C4.1102 14.9988 4.15305 15.0846 4.04979 15.0846C3.99836 15.0846 3.35467 14.947 2.6163 14.7841C1.12281 14.4409 0.822395 14.458 0.418716 14.887C-0.0278208 15.3678 -0.113536 15.8744 0.144018 16.4233C0.366878 16.8952 0.667291 17.0409 2.12649 17.3674C2.86487 17.5307 3.49141 17.6764 3.49998 17.6936C3.51713 17.7021 2.93344 18.0883 2.21221 18.5348C0.804435 19.4275 0.606882 19.6336 0.606882 20.2344C0.606882 20.921 1.09628 21.4361 1.74853 21.4361C2.16037 21.4361 2.02323 21.5132 4.66694 19.8307L6.88166 18.423L11.5772 19.4618C14.1609 20.0283 16.3414 20.5263 16.4271 20.5605C16.5732 20.6205 15.6977 21.1957 8.4527 25.788C8.28984 25.8908 7.94617 25.8308 5.58573 25.2986C4.10938 24.9724 2.80446 24.6977 2.69303 24.6977C2.34119 24.6977 1.9118 24.9553 1.71424 25.2729C1.37955 25.8137 1.59424 26.6292 2.16078 26.9382C2.23792 26.9725 2.93344 27.1443 3.7057 27.3157C4.47836 27.4876 5.18205 27.6504 5.2596 27.6847C5.3796 27.7276 5.15674 27.8994 4.36693 28.3888C3.79182 28.7407 3.20814 29.1272 3.07916 29.2386C2.07466 30.0713 2.69303 31.6505 3.97183 31.5391C4.28938 31.5134 4.59837 31.3672 5.55103 30.7578C6.19471 30.3546 6.73554 30.028 6.75268 30.0366C6.76125 30.0537 6.61554 30.7407 6.43513 31.5644C6.14328 32.8175 6.109 33.1179 6.17757 33.3668C6.4437 34.2767 7.72249 34.5342 8.25474 33.7877C8.36617 33.6244 8.62373 32.6546 9.02741 30.8607C9.3621 29.3843 9.64537 28.1566 9.66252 28.1398C9.7568 28.0541 17.9892 22.8263 18.0149 22.852C18.0234 22.8606 17.5683 24.9896 16.9932 27.5819C16.2981 30.7235 15.903 32.3374 15.8087 32.4317C15.7316 32.5089 14.7099 33.1787 13.5254 33.9166C12.3495 34.6632 11.2507 35.4016 11.1046 35.5648C10.8556 35.8224 10.8213 35.9081 10.8213 36.3289C10.8213 36.7408 10.8556 36.844 11.1046 37.1102C11.405 37.4363 11.8172 37.5738 12.2377 37.4877C12.3838 37.4534 13.0789 37.0587 13.7826 36.6036C14.6067 36.0799 15.0789 35.8224 15.0961 35.891C15.1132 35.9595 15.0018 36.5175 14.8556 37.1355C14.7181 37.762 14.5981 38.4314 14.5981 38.6204C14.5981 39.8135 15.9887 40.3886 16.8128 39.5302C17.0361 39.3069 17.1218 39.1008 17.3108 38.2681C17.4312 37.7187 17.5769 37.0836 17.6369 36.8518L17.7398 36.4228L18.5639 37.7106C19.4308 39.0755 19.7398 39.3759 20.2378 39.3759C20.9504 39.3759 21.4651 38.8694 21.4651 38.1657C21.4651 37.8053 21.3451 37.5906 19.9716 35.4187L18.4781 33.0668L19.5341 28.3198C20.1178 25.7018 20.6072 23.5471 20.6329 23.53C20.6586 23.5043 21.9288 25.4529 23.457 27.8647L26.2468 32.2423L25.6631 34.8432C25.337 36.2767 25.0709 37.5387 25.0709 37.6416C25.0709 37.9677 25.337 38.44 25.6203 38.6114C25.955 38.8175 26.5558 38.8261 26.8819 38.6286C27.2423 38.4139 27.4228 37.9677 27.7403 36.4824C27.895 35.7612 28.0493 35.1689 28.075 35.1689C28.1093 35.1689 28.3926 35.5983 28.7187 36.1216C29.3795 37.2032 29.6114 37.4008 30.255 37.4008C30.9502 37.4008 31.3967 37.0232 31.5428 36.3191C31.6285 35.9416 31.4571 35.5293 30.7959 34.482C30.4783 33.984 30.255 33.5722 30.2979 33.555C30.3408 33.5464 30.9759 33.6664 31.7228 33.8383C33.2596 34.1816 33.6457 34.2073 34.0147 33.9844C34.298 33.8211 34.5984 33.315 34.5984 33.0056C34.5898 32.6366 34.298 32.1301 33.989 31.9668C33.7743 31.8554 29.6281 30.8938 28.4864 30.6876C28.4007 30.6705 27.2677 28.9794 25.6623 26.4557C24.1958 24.1398 22.9598 22.1912 22.9166 22.114C22.8566 21.9855 22.8823 21.9765 23.1656 22.0455C23.3374 22.0798 25.5864 22.5777 28.1615 23.1528C30.7367 23.7194 32.9 24.2088 32.9686 24.2259C33.0371 24.2516 33.7155 25.239 34.462 26.4235C35.2176 27.6166 35.9212 28.6896 36.0331 28.8272C36.2735 29.1105 36.771 29.2733 37.1747 29.1962C37.518 29.119 37.9988 28.6554 38.076 28.3121C38.1703 27.8741 38.0588 27.5908 37.2176 26.2692C36.78 25.5741 36.4192 24.9904 36.4364 24.9814C36.4449 24.9729 36.9515 25.0761 37.5609 25.2218C38.7882 25.5137 39.0801 25.5051 39.4923 25.1533C40.205 24.561 40.1617 23.6083 39.398 23.0504C39.2862 22.9732 38.6768 22.7843 38.0503 22.6471C37.4151 22.5096 36.8915 22.381 36.8743 22.3638C36.8572 22.3467 37.4237 21.9691 38.1274 21.5226C39.5095 20.6557 39.8013 20.3981 39.887 19.9348C40.0417 19.085 39.1744 18.3124 38.3678 18.5956C38.2217 18.6471 37.0629 19.3511 35.7927 20.1577L33.4751 21.634L28.4962 20.5263C25.7668 19.9254 23.5264 19.4018 23.5264 19.3675C23.5264 19.2646 32.2392 13.7621 32.3934 13.7792C32.4792 13.7792 33.6898 14.0454 35.0976 14.3543C36.8315 14.7405 37.7327 14.9123 37.9217 14.8694C38.7886 14.7062 39.1576 13.6335 38.5825 12.9466C38.3335 12.6462 38.2135 12.6033 36.5739 12.2425C35.8874 12.0968 35.3037 11.9506 35.269 11.9163C35.2347 11.8906 35.638 11.5902 36.1617 11.2641C36.6853 10.9294 37.1919 10.56 37.2776 10.44C37.7241 9.83917 37.4751 8.89508 36.7796 8.5514C36.1874 8.26813 35.8784 8.35385 34.6763 9.10937C34.1098 9.46978 33.6547 9.71019 33.6547 9.64162C33.6547 9.58162 33.7918 8.92896 33.9551 8.19099C34.2984 6.65423 34.3241 6.30239 34.0837 5.92484C33.6461 5.19503 32.4612 5.22115 32.0836 5.95912C32.0151 6.0877 31.7147 7.28118 31.4228 8.60283C31.131 9.92489 30.8563 11.1437 30.8134 11.3155C30.7448 11.6074 30.5216 11.7621 26.4358 14.3458C24.075 15.8478 22.1268 17.0585 22.1006 17.0327C22.0578 16.9899 24.1778 7.33302 24.2897 7.05832C24.3325 6.96403 25.397 6.23423 26.6587 5.42728C27.9207 4.6289 29.0105 3.89093 29.0795 3.78766C29.5603 3.04929 29.1824 2.05376 28.3669 1.89907C27.9289 1.82192 27.7832 1.88192 26.4011 2.74887C25.6884 3.19541 25.1048 3.53011 25.0876 3.49582C25.0791 3.46154 25.1648 3.02357 25.2852 2.51744C25.6113 1.13538 25.5684 0.732113 25.0362 0.242718C24.8644 0.0794487 24.7015 0.028019 24.3154 0.00230408C24.0497 -0.00667572 23.7492 0.0104675 23.655 0.0533257Z" fill="#FF8A00"/>
</svg>
