<svg width="33" height="47" viewBox="0 0 33 47" fill="none" xmlns="http://www.w3.org/2000/svg">
<path d="M13.8209 0.146198C6.63727 1.0729 2.22327 5.97454 0.599388 14.8421C0.111272 17.4822 0.0017431 18.927 0.0017431 22.5138C-0.00825733 25.2835 0.0217439 26.0407 0.171274 26.9474C0.828922 30.9428 2.24374 34.5691 4.45527 37.9069C5.93009 40.1289 8.01209 42.4404 9.75597 43.7752C10.2541 44.1538 10.7027 44.5224 10.7522 44.5824C10.9513 44.8115 13.2133 45.9472 14.03 46.2263C14.4881 46.3858 15.2157 46.5649 15.6438 46.6149C18.503 47.0135 22.1298 45.1701 25.5271 41.6032C29.2935 37.6478 31.9236 32.2976 32.7308 26.9474C33.2189 23.7191 33.0298 18.5784 32.2727 14.593C31.396 9.93996 29.8021 6.54266 27.341 4.07161C25.4381 2.15866 23.2861 0.992901 20.556 0.415257C18.573 -0.0133324 15.9029 -0.122864 13.8209 0.146198ZM19.2107 1.84008C19.6888 1.91961 20.1174 1.99961 20.1474 2.02961C20.1874 2.07961 19.0316 7.81844 18.7626 8.8842L18.663 9.26278H16.0329H13.3928L13.3428 9.03373C13.1437 8.22655 11.908 2.24867 11.938 2.21867C11.948 2.19867 12.3861 2.09914 12.9042 1.97961C14.6176 1.61102 17.2682 1.55102 19.2107 1.84008ZM23.2361 3.05537C24.2223 3.53349 25.149 4.16113 25.8067 4.79878L26.2153 5.18737L25.8867 6.60219C25.7071 7.37937 25.3586 8.71466 25.1095 9.56137C24.4118 11.9524 24.4418 11.8729 24.2028 11.8129C24.0933 11.7829 23.1566 11.3548 22.1203 10.8562C20.4564 10.039 20.2474 9.91948 20.2869 9.73042C20.3069 9.61089 20.6655 7.92701 21.0741 5.99407L21.8113 2.47678L22.0603 2.53678C22.1998 2.57726 22.728 2.80631 23.2361 3.05537ZM11.0608 6.2836C11.5889 8.79419 11.7484 9.7309 11.6684 9.7809C11.3199 10.01 8.02161 11.7538 7.95209 11.7538C7.74303 11.7538 5.87962 6.35361 5.96962 6.01503C6.02962 5.76596 7.14539 4.68973 7.96209 4.08208C8.60974 3.60397 10.1041 2.77679 10.2436 2.81679C10.2936 2.83631 10.6622 4.39067 11.0608 6.2836ZM28.0782 7.4989C29.6125 9.96996 30.5688 13.1582 31.0969 17.6017C31.2264 18.7275 31.2664 19.8932 31.2764 22.5138C31.2764 25.6821 31.2564 26.0507 31.0474 27.2264C30.3697 30.9428 29.0744 34.201 27.062 37.2297C26.7629 37.6878 26.4843 38.0564 26.4343 38.0564C26.3843 38.0564 24.1823 36.1635 21.5522 33.8519C18.9121 31.5304 16.6106 29.5479 16.431 29.4384C16.172 29.2889 16.0424 29.2689 15.8434 29.3389C15.7039 29.3989 13.5719 31.4514 11.1108 33.9019L6.62727 38.3655L6.09915 37.6083C3.82762 34.3405 2.3728 30.5442 1.71515 26.2002C1.53562 24.9649 1.56562 20.4014 1.77515 18.2294C2.16374 14.234 2.86091 11.4243 4.09668 8.86372L4.6548 7.71795L4.80433 8.16655C7.31492 15.8583 10.9813 22.6734 14.6476 26.4892C15.1657 27.0374 15.7039 27.5055 15.8434 27.5355C16.232 27.635 16.6901 27.3559 17.6768 26.4197C20.0078 24.2277 22.4589 20.6409 24.1328 16.9741C25.4481 14.1044 26.6238 10.6771 27.391 7.4889C27.4806 7.10031 27.5806 6.77172 27.5901 6.77172C27.6101 6.77172 27.8291 7.10078 28.0782 7.4989ZM18.2744 11.0762C18.2744 11.1457 18.0854 12.1124 17.8559 13.2182L17.4373 15.2407H16.0324H14.6376L14.209 13.2182C13.98 12.1124 13.7904 11.1457 13.7904 11.0762C13.7904 10.9867 14.3086 10.9567 16.032 10.9567C17.7563 10.9562 18.2744 10.9862 18.2744 11.0762ZM12.5751 13.4673C12.8042 14.583 12.9937 15.5597 12.9937 15.6392C12.9837 15.7888 10.7222 17.5322 10.5327 17.5322C10.4431 17.5322 9.33691 15.2507 8.72926 13.8358L8.53021 13.3777L10.2936 12.4215C11.2598 11.8934 12.067 11.4648 12.097 11.4548C12.127 11.4543 12.3461 12.361 12.5751 13.4673ZM21.8313 12.5505C22.8575 13.0487 23.7042 13.4673 23.7342 13.4873C23.7542 13.5173 23.7142 13.7063 23.6547 13.9158C23.5251 14.3044 22.1003 17.5227 22.0208 17.6022C21.9513 17.6817 19.0716 15.7093 19.0716 15.5897C19.0716 15.5202 19.2511 14.6235 19.4702 13.5973C19.6893 12.571 19.8688 11.7143 19.8688 11.6943C19.8683 11.6138 20.0178 11.6838 21.8313 12.5505ZM17.0287 17.1536C16.9191 17.6217 16.082 21.6271 16.082 21.6871C16.082 21.9762 15.9224 21.3385 15.5338 19.4751C15.2848 18.2694 15.0557 17.2036 15.0257 17.1041C14.9757 16.9545 15.0657 16.9345 16.032 16.9345C17.0687 16.9345 17.0787 16.9345 17.0287 17.1536ZM14.1295 20.86C14.4981 22.6034 14.7771 24.0482 14.7571 24.0682C14.6081 24.2177 11.3999 19.4951 11.3999 19.1461C11.3999 18.9965 13.3228 17.5322 13.4023 17.6217C13.4423 17.6517 13.7709 19.1065 14.1295 20.86ZM19.2007 17.8012C19.4297 17.9508 19.9678 18.3194 20.3964 18.6084L21.1736 19.1465L20.855 19.7142C20.4264 20.4714 19.5197 21.8067 18.8126 22.7234C18.0854 23.6601 17.1787 24.6763 17.1787 24.5568C17.1787 24.4373 18.5635 17.8317 18.6235 17.6522C18.683 17.4822 18.7226 17.4922 19.2007 17.8012ZM18.9021 33.7424C19.5697 34.3301 20.1574 34.8382 20.1974 34.8682C20.2769 34.9377 19.0316 35.9044 18.7426 36.0239C18.653 36.0539 18.4635 35.5558 18.1349 34.4996C17.8658 33.6329 17.6268 32.8657 17.6068 32.7957C17.5073 32.5471 17.7263 32.7062 18.9021 33.7424ZM13.9304 34.5296C13.6814 35.3463 13.4523 36.0339 13.4323 36.0539C13.3723 36.1235 12.3961 35.1472 12.3961 35.0277C12.3961 34.9182 14.309 32.9552 14.359 33.0152C14.3786 33.0352 14.1795 33.7124 13.9304 34.5296ZM16.9191 36.1835L17.1582 36.9606H16.0324H14.9067L15.1457 36.1835C15.2753 35.7649 15.5243 34.9482 15.7038 34.3701L16.0224 33.3338L16.361 34.3701C16.5406 34.9482 16.7896 35.7649 16.9191 36.1835ZM22.2298 36.6421L22.748 37.1202L21.3131 38.555C20.526 39.3422 19.8588 39.9698 19.8388 39.9498C19.7193 39.7803 19.1811 37.8078 19.2411 37.7478C19.5697 37.4388 21.4431 36.1635 21.5627 36.1735C21.6417 36.1735 21.9408 36.383 22.2298 36.6421ZM12.0175 37.0307C12.4656 37.4688 12.7947 37.8874 12.7947 37.9969C12.7947 38.2759 12.2666 39.8598 12.187 39.8303C12.0775 39.7803 10.005 37.4592 10.005 37.3892C10.005 37.2797 11.0313 36.2635 11.1408 36.2635C11.2003 36.2635 11.5989 36.6121 12.0175 37.0307ZM24.7404 38.8436C25.3681 39.4112 25.3781 39.4312 25.2285 39.6708C24.7404 40.4079 21.3331 43.4371 20.9741 43.4371C20.9346 43.4371 20.7945 43.0785 20.6655 42.6299L20.4364 41.8228L22.2198 40.0394C23.1966 39.0631 24.0233 38.2559 24.0533 38.2559C24.0828 38.2659 24.3918 38.525 24.7404 38.8436ZM10.1541 40.1089C10.9213 40.9656 11.5589 41.7228 11.5789 41.8028C11.6189 41.9823 11.3099 42.9385 11.2103 42.9385C10.9813 42.9385 8.60973 40.7965 7.99209 40.0194L7.6835 39.6408L8.22162 39.0926C8.51068 38.7936 8.75974 38.5545 8.75974 38.5545C8.76927 38.555 9.39691 39.2522 10.1541 40.1089ZM18.0354 39.7203L18.354 40.7465H16.0324H13.7109L14 39.8198C14.1595 39.3217 14.309 38.8436 14.3386 38.7736C14.3686 38.6741 14.7671 38.6541 16.0524 38.6741L17.7163 38.7041L18.0354 39.7203ZM19.1711 43.3871C19.3802 44.0348 19.4302 44.2938 19.3507 44.3434C19.2811 44.3834 18.8726 44.5424 18.434 44.6824C16.8896 45.1905 15.5448 45.121 13.8009 44.4234C12.7347 43.9948 12.7247 43.9848 12.9442 43.2176C13.0437 42.869 13.1433 42.5599 13.1633 42.5104C13.1933 42.4704 14.4886 42.4504 16.0424 42.4604L18.8921 42.4904L19.1711 43.3871Z" fill="#FF8A00"/>
<path d="M3.58857 12.9792C3.23998 13.3277 2.85139 15.2012 2.62233 17.5722C2.4728 19.1466 2.56233 22.3448 2.78186 23.7596C3.35951 27.476 4.61528 30.4847 6.75728 33.3443C7.42492 34.241 7.76351 34.4701 8.2021 34.3006C8.57069 34.171 15.2262 29.1594 15.4257 28.8703C15.6153 28.6013 15.6248 28.2027 15.4557 27.9936C15.3857 27.9041 14.9976 27.615 14.589 27.346C12.7747 26.1502 10.5627 24.1182 9.16786 22.3843C7.09538 19.7937 5.62103 16.775 5.07292 13.9954C4.95339 13.3877 4.85386 13.1487 4.66433 12.9692C4.33574 12.6801 3.88715 12.6801 3.58857 12.9792ZM5.30197 19.4852C6.82633 22.5239 9.52644 25.6426 12.6251 27.9841L13.2928 28.4822L10.6922 30.4452C9.25738 31.5209 8.06209 32.3581 8.02209 32.3181C5.97962 29.5284 4.79386 26.4897 4.30574 22.8129C4.16621 21.7767 4.14621 17.7417 4.27574 17.5322C4.32574 17.4527 4.42527 17.5722 4.5748 17.9408C4.69433 18.2399 5.02291 18.937 5.30197 19.4852Z" fill="#FF8A00"/>
<path d="M27.8491 12.9191C27.6896 13.0487 27.5801 13.3577 27.4405 13.9654C26.6134 17.7612 24.7104 21.149 21.7117 24.1677C20.3964 25.493 19.5597 26.1902 18.0454 27.2464C16.9791 27.9836 16.7901 28.2526 16.9696 28.7208C17.1292 29.1194 24.1633 34.3701 24.5419 34.3701C24.9904 34.3701 25.5181 33.7824 26.6443 32.0785C28.2682 29.6075 29.3444 26.5388 29.7926 23.1115C29.9916 21.5371 29.9421 17.4222 29.693 15.9078C29.404 14.1544 29.1649 13.2477 28.9258 12.9887C28.6563 12.7001 28.1577 12.6701 27.8491 12.9191ZM28.3273 19.8837C28.3573 24.1777 27.241 28.1831 25.129 31.3514C24.7504 31.9195 24.4318 32.3776 24.4118 32.3776C24.3223 32.3776 19.3207 28.5617 19.3207 28.4917C19.3207 28.4417 19.5497 28.2426 19.8188 28.0336C23.4556 25.2835 26.3648 21.6571 27.9887 17.8312L28.1782 17.3827L28.2477 17.9803C28.2873 18.3094 28.3173 19.1661 28.3273 19.8837Z" fill="#FF8A00"/>
</svg>
